REM DIRINDEX 1\2,1\3,1\4,1\5,1\6
REM DIRNAME cjc129,folder01,folder02,folder03,folder04,folder05
TITLE ""
FILE "DISC4Track11.mp3" MP3
  TRACK 01 AUDIO
    TITLE "0:"
    INDEX 01 00:00:00
  TRACK 02 AUDIO
    TITLE "3:cjc129_3193"
    INDEX 01 00:00:07
  TRACK 03 AUDIO
    TITLE "0:"
    INDEX 01 00:01:54
  TRACK 04 AUDIO
    TITLE "5:cjc129_3194"
    INDEX 01 00:02:10
  TRACK 05 AUDIO
    TITLE "0:"
    INDEX 01 00:04:09
  TRACK 06 AUDIO
    TITLE "4:cjc129_3195"
    INDEX 01 00:04:74
  TRACK 07 AUDIO
    TITLE "0:"
    INDEX 01 00:06:47
  TRACK 08 AUDIO
    TITLE "6:cjc129_3196"
    INDEX 01 00:07:05
  TRACK 09 AUDIO
    TITLE "0:"
    INDEX 01 00:11:68
  TRACK 10 AUDIO
    TITLE "3:cjc129_3197"
    INDEX 01 00:13:43
  TRACK 11 AUDIO
    TITLE "0:"
    INDEX 01 00:14:66
  TRACK 12 AUDIO
    TITLE "5:cjc129_3198"
    INDEX 01 00:15:23
  TRACK 13 AUDIO
    TITLE "0:"
    INDEX 01 00:17:08
  TRACK 14 AUDIO
    TITLE "4:cjc129_3199"
    INDEX 01 00:17:74
  TRACK 15 AUDIO
    TITLE "0:"
    INDEX 01 00:19:24
  TRACK 16 AUDIO
    TITLE "6:cjc129_3200"
    INDEX 01 00:19:56
  TRACK 17 AUDIO
    TITLE "0:"
    INDEX 01 00:23:71
  TRACK 18 AUDIO
    TITLE "3:cjc129_3201"
    INDEX 01 00:25:46
  TRACK 19 AUDIO
    TITLE "0:"
    INDEX 01 00:28:57
  TRACK 20 AUDIO
    TITLE "5:cjc129_3202"
    INDEX 01 00:29:15
  TRACK 21 AUDIO
    TITLE "0:"
    INDEX 01 00:31:45
  TRACK 22 AUDIO
    TITLE "4:cjc129_3203"
    INDEX 01 00:32:39
  TRACK 23 AUDIO
    TITLE "0:"
    INDEX 01 00:35:47
  TRACK 24 AUDIO
    TITLE "6:cjc129_3204"
    INDEX 01 00:36:05
  TRACK 25 AUDIO
    TITLE "0:"
    INDEX 01 00:40:28
  TRACK 26 AUDIO
    TITLE "3:cjc129_3205"
    INDEX 01 00:42:04
  TRACK 27 AUDIO
    TITLE "0:"
    INDEX 01 00:43:21
  TRACK 28 AUDIO
    TITLE "5:cjc129_3206"
    INDEX 01 00:43:54
  TRACK 29 AUDIO
    TITLE "0:"
    INDEX 01 00:45:47
  TRACK 30 AUDIO
    TITLE "4:cjc129_3207"
    INDEX 01 00:46:35
  TRACK 31 AUDIO
    TITLE "0:"
    INDEX 01 00:47:54
  TRACK 32 AUDIO
    TITLE "6:cjc129_3208"
    INDEX 01 00:48:10
  TRACK 33 AUDIO
    TITLE "0:"
    INDEX 01 00:52:51
  TRACK 34 AUDIO
    TITLE "3:cjc129_3209"
    INDEX 01 00:54:27
  TRACK 35 AUDIO
    TITLE "0:"
    INDEX 01 00:57:27
  TRACK 36 AUDIO
    TITLE "5:cjc129_3210"
    INDEX 01 00:57:58
  TRACK 37 AUDIO
    TITLE "0:"
    INDEX 01 00:59:36
  TRACK 38 AUDIO
    TITLE "4:cjc129_3211"
    INDEX 01 01:00:25
  TRACK 39 AUDIO
    TITLE "0:"
    INDEX 01 01:03:26
  TRACK 40 AUDIO
    TITLE "6:cjc129_3212"
    INDEX 01 01:03:57
  TRACK 41 AUDIO
    TITLE "0:"
    INDEX 01 01:08:38
  TRACK 42 AUDIO
    TITLE "2:cjc129_3213"
    INDEX 01 01:10:14
  TRACK 43 AUDIO
    TITLE "0:"
    INDEX 01 01:13:06
  TRACK 44 AUDIO
    TITLE "3:cjc129_3214"
    INDEX 01 01:14:19
  TRACK 45 AUDIO
    TITLE "0:"
    INDEX 01 01:15:66
  TRACK 46 AUDIO
    TITLE "5:cjc129_3215"
    INDEX 01 01:16:20
  TRACK 47 AUDIO
    TITLE "0:"
    INDEX 01 01:18:64
  TRACK 48 AUDIO
    TITLE "4:cjc129_3216"
    INDEX 01 01:19:52
  TRACK 49 AUDIO
    TITLE "0:"
    INDEX 01 01:21:23
  TRACK 50 AUDIO
    TITLE "6:cjc129_3217"
    INDEX 01 01:21:55
  TRACK 51 AUDIO
    TITLE "0:"
    INDEX 01 01:25:53
  TRACK 52 AUDIO
    TITLE "3:cjc129_3218"
    INDEX 01 01:27:32
  TRACK 53 AUDIO
    TITLE "0:"
    INDEX 01 01:28:65
  TRACK 54 AUDIO
    TITLE "5:cjc129_3219"
    INDEX 01 01:29:21
  TRACK 55 AUDIO
    TITLE "0:"
    INDEX 01 01:31:30
  TRACK 56 AUDIO
    TITLE "4:cjc129_3220"
    INDEX 01 01:32:23
  TRACK 57 AUDIO
    TITLE "0:"
    INDEX 01 01:33:56
  TRACK 58 AUDIO
    TITLE "6:cjc129_3221"
    INDEX 01 01:34:12
  TRACK 59 AUDIO
    TITLE "0:"
    INDEX 01 01:38:18
